<?xml version="1.0" encoding="UTF-8"?><svg id="icon" xmlns="http://www.w3.org/2000/svg" viewBox="0 0 64 64"><defs><style>.cls-1{fill:#f58220;}.cls-2{fill:#fbaf3c;}.cls-3{fill:#cd2033;}.cls-4{fill:#63a5b9;}.cls-5{fill:#576eb2;}.cls-6{fill:#26569a;}</style></defs><polygon class="cls-1" points="40.18 33.21 33.36 33.21 33.36 40.62 30.68 40.62 30.68 33.21 23.86 33.21 23.86 30.58 30.68 30.58 30.68 23.17 33.36 23.17 33.36 30.58 40.18 30.58 40.18 33.21"/><polygon class="cls-3" points="26.47 42.68 20.37 42.68 20.37 36.04 18.05 36.04 18.05 42.68 11.94 42.68 11.94 44.7 18.05 44.7 18.05 51.34 20.37 51.34 20.37 44.7 26.47 44.7 26.47 42.68"/><polygon class="cls-4" points="52.1 18.94 45.99 18.94 45.99 12.27 43.68 12.27 43.68 18.94 37.57 18.94 37.57 20.96 43.68 20.96 43.68 27.57 45.99 27.57 45.99 20.96 52.1 20.96 52.1 18.94"/><polygon class="cls-5" points="37.2 50.04 33.05 50.04 33.05 45.41 31.08 45.41 31.08 50.04 26.93 50.04 26.93 51.83 31.08 51.83 31.08 56.46 33.05 56.46 33.05 51.83 37.2 51.83 37.2 50.04"/><polygon class="cls-2" points="26.47 18.94 20.29 18.94 20.29 12.27 18.13 12.27 18.13 18.94 11.94 18.94 11.94 20.9 18.13 20.9 18.13 27.57 20.29 27.57 20.29 20.9 26.47 20.9 26.47 18.94"/><polygon class="cls-5" points="56.8 31 52.65 31 52.65 26.37 50.68 26.37 50.68 31 46.53 31 46.53 32.79 50.68 32.79 50.68 37.42 52.65 37.42 52.65 32.79 56.8 32.79 56.8 31"/><polygon class="cls-6" points="52.1 42.68 45.99 42.68 45.99 36.04 43.68 36.04 43.68 42.68 37.57 42.68 37.57 44.7 43.68 44.7 43.68 51.34 45.99 51.34 45.99 44.7 52.1 44.7 52.1 42.68"/><polygon class="cls-4" points="36.9 12.08 32.8 12.08 32.8 7.54 31.32 7.54 31.32 12.08 27.22 12.08 27.22 13.46 31.32 13.46 31.32 18 32.8 18 32.8 13.46 36.9 13.46 36.9 12.08"/><polygon class="cls-4" points="16.88 31.18 12.77 31.18 12.77 26.73 11.32 26.73 11.32 31.18 7.2 31.18 7.2 32.61 11.32 32.59 11.32 37.06 12.77 37.06 12.77 32.58 16.88 32.55 16.88 31.18"/></svg>