<svg xmlns="http://www.w3.org/2000/svg" width="64" height="64" viewBox="0 0 640 640" shape-rendering="geometricPrecision" text-rendering="geometricPrecision" image-rendering="optimizeQuality" fill-rule="evenodd" clip-rule="evenodd"><path d="M26.823 48.438v204.581h204.582l24.118.012-17.055-17.067-59.647-59.647a205.31 205.31 0 0 1 12.284-10.96 202.213 202.213 0 0 1 17.61-12.898l-.011-.012c31.346-20.445 68.812-32.327 109.088-32.327h.082v-.036c55.159.012 105.131 22.406 141.273 58.56 36.143 36.142 58.525 86.08 58.56 141.19h-.035v.249h.035c-.012 55.158-22.406 105.143-58.56 141.273-36.154 36.154-86.091 58.524-141.19 58.56v-.036h-.402v.036a200.224 200.224 0 0 1-56.93-8.292v-.012a199.318 199.318 0 0 1-29.752-11.527c-48.91-23.646-86.742-66.686-103.513-119.104l-2.22-6.933H2.184l2.457 11.976.071.319v.035a319.09 319.09 0 0 0 18.425 58.548v.048a319.811 319.811 0 0 0 28.76 53.08c57.426 85.583 155.117 141.957 265.894 141.957h.082v-.035c88.36-.024 168.38-35.859 226.231-93.71v-.047c57.816-57.84 93.627-137.79 93.675-226.054h.035v-.248h-.035c-.024-88.324-35.86-168.321-93.746-226.196l.024-.024C486.207 35.857 406.245.07 317.958.023v-.036h-.32v.036C272.26.046 229.054 9.53 189.96 26.574a335.597 335.597 0 0 0-18.78 8.918c-28.524 14.728-54.555 33.661-77.257 55.925L43.867 41.374 26.823 24.318v24.119z"/></svg>