<svg width="16" height="16" fill="none" xmlns="http://www.w3.org/2000/svg"><path d="M5.898 8.036c-.44.25-.911.567-1.225.793a3.264 3.264 0 0 0-.734.696c-.188.239-.371.47-.46.745-.087.276-.144.61-.144.95 0 .376.134.721.284 1.035.15.313.352.583.603.81.25.213.54.382.865.507.327.126.672.189 1.036.189s.69-.05.979-.15a3.2 3.2 0 0 0 .828-.415c.263-.176.508-.383.734-.621.226-.239.57-.605.784-.88L7.68 9.864l-1.781-1.83Zm2.69-4.045c0-.527-.181-.947-.545-1.261-.352-.326-.785-.49-1.3-.49-.564 0-1.04.176-1.43.527-.376.352-.564.829-.564 1.431 0 .226.05.464.15.715.113.239.239.465.377.678.15.213.3.414.451.602.164.176.302.308.415.396.25-.15.52-.301.809-.452a5.18 5.18 0 0 0 .79-.546c.252-.2.452-.433.603-.696.163-.264.245-.565.245-.904Zm2.391 7.586 2.993 3.087h-1.546l-2.144-2.09c-.553.716-1.254 1.413-1.882 1.827-.627.401-1.393.602-2.296.602a4.917 4.917 0 0 1-1.6-.264c-.502-.163-.937-.47-1.326-.796-.376-.326-.659-.85-.885-1.313-.208-.514-.26-.85-.265-1.41-.005-.561.073-1.071.236-1.473.163-.401.288-.642.565-.956.288-.326.614-.615.978-.866a9.904 9.904 0 0 1 1.28-.73c-.401-.426-.953-1.164-1.28-1.679-.314-.553-.359-.877-.388-1.455 0-.502.056-.867.219-1.256.176-.389.414-.715.715-.979a2.969 2.969 0 0 1 1.054-.62A4.03 4.03 0 0 1 6.725.997c.44 0 .853.07 1.243.207.389.126.727.314 1.016.565.301.25.533.565.696.941.176.364.264.79.264 1.28 0 .44-.088.835-.264 1.186a3.81 3.81 0 0 1-.696.941 5.63 5.63 0 0 1-.941.753c-.352.213-.697.408-1.036.584l3.069 3.162 1.826-3.162h1.524l-2.447 4.122Z" fill="#2E2E2E"/></svg>