<svg width="16" height="16" fill="none" xmlns="http://www.w3.org/2000/svg"><path fill-rule="evenodd" clip-rule="evenodd" d="M8.668 2.04a5.998 5.998 0 0 0-1.33 11.922c1.38.154 2.736-.157 3.805-.848l.42-.271.543.84-.42.271c-1.275.824-2.864 1.18-4.458 1.002a6.998 6.998 0 1 1 7.73-6.18c-.243 2.187-1.616 3.267-2.998 3.337-.67.034-1.336-.174-1.822-.61a2.094 2.094 0 0 1-.592-.9c-.882.924-1.754 1.288-2.54 1.284a2.43 2.43 0 0 1-1.805-.809l-.002-.002c-.655-.764-.771-1.704-.685-2.51.086-.795.373-1.52.622-1.963C6.129 4.58 7.73 4.043 8.54 4.07c1.018.016 1.664.57 2.03 1.217l.012.023.267-.958 1.053-.052-1.03 3.677c-.043.174-.09.34-.14.5l-.25.89-.04.35c-.052.47.109.812.363 1.04.266.24.664.379 1.103.357.834-.043 1.86-.69 2.056-2.45A5.998 5.998 0 0 0 8.668 2.04Zm-.16 3.03c-.397-.015-1.651.286-2.48 1.985l-.007.014-.007.013a4.394 4.394 0 0 0-.505 1.592c-.07.643.036 1.268.448 1.75.186.214.561.461 1.053.463.477.002 1.163-.226 1.978-1.154.249-.29.863-1.28 1.034-2.658 0-.357-.085-.876-.322-1.295-.229-.405-.583-.701-1.18-.71h-.012Z" fill="#2E2E2E"/></svg>