<svg width="16" height="16" fill="none" xmlns="http://www.w3.org/2000/svg"><g fill="#2E2E2E"><path fill-rule="evenodd" clip-rule="evenodd" d="M6.16 2.646C6.823 2.205 7.676 2 8.5 2a4.116 4.116 0 0 1 2.946 1.234l.043.047.013.015.004.005.002.002v.001l-.383.321-.384.32v.001l-.002-.003a2.064 2.064 0 0 0-.126-.127A3.116 3.116 0 0 0 8.5 3c-.676.001-1.323.171-1.785.48C6.268 3.777 6 4.194 6 4.75c0 .593.225.99.569 1.311.367.344.86.595 1.405.867.269.134.547.255.838.38l.3.13c.389.172.795.36 1.158.595.366.235.71.527.96.918.254.396.395.866.395 1.424 0 1.09-.445 1.896-1.137 2.416-.673.504-1.539.709-2.363.709-1.127 0-1.961-.308-2.521-.628a3.85 3.85 0 0 1-.63-.445 2.736 2.736 0 0 1-.21-.206l-.015-.016-.005-.006-.002-.002v-.001l.383-.321.384-.32.02.021c.021.022.056.056.105.1.098.085.252.205.466.327.424.243 1.09.497 2.025.497.676 0 1.31-.17 1.763-.51.432-.324.737-.83.737-1.615 0-.38-.093-.66-.237-.884-.148-.231-.368-.43-.658-.617a7.439 7.439 0 0 0-1.021-.52l-.274-.119c-.298-.129-.612-.264-.909-.413l-.028-.014c-.511-.256-1.13-.564-1.612-1.017A2.68 2.68 0 0 1 5 4.75c0-.944.482-1.652 1.16-2.104Z"/><path d="M7 13h1v2H7v-2ZM8 1h1v1.5H8V1Z"/></g></svg>