<svg width="16" height="16" fill="none" xmlns="http://www.w3.org/2000/svg"><g fill="#2E2E2E"><path d="M7.5 5a2 2 0 1 0 0-4 2 2 0 0 0 0 4ZM8 8V6H7v2H3a1 1 0 0 0-1 1v2h1V9h4v2h1V9h4v2h1V9a1 1 0 0 0-1-1H8Z"/><path fill-rule="evenodd" clip-rule="evenodd" d="M4 13.5a1.5 1.5 0 1 1-3 0 1.5 1.5 0 0 1 3 0Zm-1 0a.5.5 0 1 1-1 0 .5.5 0 0 1 1 0ZM7.5 15a1.5 1.5 0 1 0 0-3 1.5 1.5 0 0 0 0 3Zm0-1a.5.5 0 1 0 0-1 .5.5 0 0 0 0 1ZM14 13.5a1.5 1.5 0 1 1-3 0 1.5 1.5 0 0 1 3 0Zm-1 0a.5.5 0 1 1-1 0 .5.5 0 0 1 1 0Z"/></g></svg>