<svg width="16" height="16" fill="none" xmlns="http://www.w3.org/2000/svg"><g fill="#2E2E2E"><path fill-rule="evenodd" clip-rule="evenodd" d="m14.975 8.6-1.073-.091a6.014 6.014 0 0 0 0-1.018l1.073-.09a7.119 7.119 0 0 1 0 1.199Zm-.155-2.186-1.05.243a5.876 5.876 0 0 0-.312-.963l.992-.42c.154.365.278.746.37 1.14Zm-.825-2.03-.921.558a5.956 5.956 0 0 0-.597-.82l.813-.706c.262.301.498.625.705.969Zm-1.41-1.674-.707.813a5.947 5.947 0 0 0-.82-.597l.557-.921c.344.207.668.443.97.705Zm-1.86-1.16-.42.992a5.87 5.87 0 0 0-.962-.312l.243-1.05c.394.092.774.216 1.14.37ZM8.6 1.025l-.091 1.073a6.019 6.019 0 0 0-1.018 0l-.09-1.073a7.094 7.094 0 0 1 1.199 0Zm-2.186.155.243 1.05a5.87 5.87 0 0 0-.963.312l-.42-.992a6.947 6.947 0 0 1 1.14-.37Zm-2.03.825.558.921c-.29.176-.565.376-.82.597l-.706-.813c.301-.262.625-.498.969-.705ZM2.71 3.415l.813.707c-.221.255-.421.53-.597.82l-.921-.557c.207-.344.443-.668.705-.97Zm-1.16 1.86.992.42a5.87 5.87 0 0 0-.312.962l-1.05-.243c.092-.394.216-.775.37-1.14ZM1.025 7.4a7.094 7.094 0 0 0 0 1.2l1.073-.091a6.019 6.019 0 0 1 0-1.018l-1.073-.09Zm.155 2.186 1.05-.243c.077.333.182.654.312.963l-.992.42a6.947 6.947 0 0 1-.37-1.14Zm.825 2.03.921-.558c.176.29.376.565.597.82l-.813.706a7.025 7.025 0 0 1-.705-.969Zm1.41 1.674.707-.813c.255.221.53.421.82.597l-.557.921a7.03 7.03 0 0 1-.97-.705Zm1.86 1.16.42-.992c.308.13.63.235.962.312l-.243 1.05a6.952 6.952 0 0 1-1.14-.37Zm2.125.525.091-1.073a6.014 6.014 0 0 0 1.018 0l.09 1.073a7.119 7.119 0 0 1-1.199 0Zm2.186-.155-.243-1.05c.333-.077.654-.182.963-.312l.42.992a6.952 6.952 0 0 1-1.14.37Zm2.03-.825-.558-.921c.29-.176.565-.376.82-.597l.706.813a7.033 7.033 0 0 1-.969.705Zm1.674-1.41-.813-.707c.221-.255.421-.53.597-.82l.921.557a7.033 7.033 0 0 1-.705.97Zm1.16-1.86-.992-.42c.13-.308.235-.63.312-.962l1.05.243a6.952 6.952 0 0 1-.37 1.14Z"/><path d="M8.13 12.003c-.4 0-.77-.077-1.11-.23a2.373 2.373 0 0 1-.88-.69c-.246-.307-.44-.693-.58-1.16-.14-.467-.21-1.01-.21-1.63 0-.627.08-1.183.24-1.67.16-.493.38-.91.66-1.25.28-.34.607-.6.98-.78.38-.18.787-.27 1.22-.27.42 0 .784.06 1.09.18.314.113.57.25.77.41l-.52.78a2.184 2.184 0 0 0-.59-.32c-.22-.08-.483-.12-.79-.12-.3 0-.573.07-.82.21-.24.133-.446.32-.62.56-.173.247-.31.543-.41.89-.1.34-.153.717-.16 1.13.247-.233.534-.437.86-.61.334-.173.714-.26 1.14-.26.734 0 1.307.207 1.72.62.42.407.63.977.63 1.71 0 .367-.066.703-.2 1.01-.133.307-.316.57-.55.79a2.7 2.7 0 0 1-.84.52c-.32.12-.663.18-1.03.18Zm.06-.91c.48 0 .857-.137 1.13-.41.274-.273.41-.657.41-1.15 0-.427-.116-.777-.35-1.05-.226-.273-.613-.41-1.16-.41-.373 0-.723.083-1.05.25-.32.167-.573.367-.76.6.027.38.09.71.19.99.107.273.237.497.39.67a1.5 1.5 0 0 0 .53.39c.207.08.43.12.67.12Z"/></g></svg>