<svg width="16" height="16" fill="none" xmlns="http://www.w3.org/2000/svg"><g fill="#2E2E2E"><path fill-rule="evenodd" clip-rule="evenodd" d="m14.975 8.6-1.073-.091a6.014 6.014 0 0 0 0-1.018l1.073-.09a7.119 7.119 0 0 1 0 1.199Zm-.155-2.186-1.05.243a5.876 5.876 0 0 0-.312-.963l.992-.42c.154.365.278.746.37 1.14Zm-.825-2.03-.921.558a5.956 5.956 0 0 0-.597-.82l.813-.706c.262.301.498.625.705.969Zm-1.41-1.674-.707.813a5.947 5.947 0 0 0-.82-.597l.557-.921c.344.207.668.443.97.705Zm-1.86-1.16-.42.992a5.87 5.87 0 0 0-.962-.312l.243-1.05c.394.092.774.216 1.14.37ZM8.6 1.025l-.091 1.073a6.019 6.019 0 0 0-1.018 0l-.09-1.073a7.094 7.094 0 0 1 1.199 0Zm-2.186.155.243 1.05a5.87 5.87 0 0 0-.963.312l-.42-.992a6.947 6.947 0 0 1 1.14-.37Zm-2.03.825.558.921c-.29.176-.565.376-.82.597l-.706-.813c.301-.262.625-.498.969-.705ZM2.71 3.415l.813.707c-.221.255-.421.53-.597.82l-.921-.557c.207-.344.443-.668.705-.97Zm-1.16 1.86.992.42a5.87 5.87 0 0 0-.312.962l-1.05-.243c.092-.394.216-.775.37-1.14ZM1.025 7.4a7.094 7.094 0 0 0 0 1.2l1.073-.091a6.019 6.019 0 0 1 0-1.018l-1.073-.09Zm.155 2.186 1.05-.243c.077.333.182.654.312.963l-.992.42a6.947 6.947 0 0 1-.37-1.14Zm.825 2.03.921-.558c.176.29.376.565.597.82l-.813.706a7.025 7.025 0 0 1-.705-.969Zm1.41 1.674.707-.813c.255.221.53.421.82.597l-.557.921a7.03 7.03 0 0 1-.97-.705Zm1.86 1.16.42-.992c.308.13.63.235.962.312l-.243 1.05a6.952 6.952 0 0 1-1.14-.37Zm2.125.525.091-1.073a6.014 6.014 0 0 0 1.018 0l.09 1.073a7.119 7.119 0 0 1-1.199 0Zm2.186-.155-.243-1.05c.333-.077.654-.182.963-.312l.42.992a6.952 6.952 0 0 1-1.14.37Zm2.03-.825-.558-.921c.29-.176.565-.376.82-.597l.706.813a7.033 7.033 0 0 1-.969.705Zm1.674-1.41-.813-.707c.221-.255.421-.53.597-.82l.921.557a7.033 7.033 0 0 1-.705.97Zm1.16-1.86-.992-.42c.13-.308.235-.63.312-.962l1.05.243a6.952 6.952 0 0 1-.37 1.14Z"/><path d="M8.004 12.033c-.44 0-.833-.05-1.18-.15-.34-.1-.626-.24-.86-.42a1.858 1.858 0 0 1-.55-.64 1.805 1.805 0 0 1-.18-.8c0-.247.044-.47.13-.67.094-.207.22-.393.38-.56.16-.167.35-.317.57-.45.227-.14.477-.267.75-.38-.466-.22-.833-.463-1.1-.73-.26-.273-.39-.637-.39-1.09 0-.233.054-.46.16-.68.107-.22.264-.417.47-.59.2-.173.45-.313.75-.42.307-.107.657-.16 1.05-.16.4 0 .75.053 1.05.16.307.107.564.247.77.42.2.173.35.373.45.6.1.22.15.443.15.67 0 .42-.13.77-.39 1.05s-.63.527-1.11.74c.287.12.544.247.77.38.227.133.42.28.58.44.16.16.28.343.36.55.087.207.13.447.13.72 0 .287-.063.553-.19.8-.12.24-.296.45-.53.63-.24.18-.533.32-.88.42-.34.107-.726.16-1.16.16Zm.06-4.48c.234-.107.434-.207.6-.3.174-.1.314-.203.42-.31a.925.925 0 0 0 .23-.32 1 1 0 0 0 0-.79.937.937 0 0 0-.25-.34 1.38 1.38 0 0 0-.43-.23 1.937 1.937 0 0 0-.63-.09c-.233 0-.44.03-.62.09a1.244 1.244 0 0 0-.43.22.91.91 0 0 0-.27.33.992.992 0 0 0 .01.8 1 1 0 0 0 .27.34c.12.107.27.21.45.31.187.093.404.19.65.29Zm-.06 3.6c.514 0 .924-.103 1.23-.31a1.01 1.01 0 0 0 .47-.88c0-.36-.15-.657-.45-.89-.293-.24-.733-.48-1.32-.72-.273.127-.513.25-.72.37-.2.113-.366.233-.5.36a1.4 1.4 0 0 0-.32.41c-.066.14-.1.297-.1.47 0 .36.157.65.47.87.314.213.727.32 1.24.32Z"/></g></svg>