<svg width="16" height="16" fill="none" xmlns="http://www.w3.org/2000/svg"><g fill="#2E2E2E"><path fill-rule="evenodd" clip-rule="evenodd" d="m14.975 8.6-1.073-.091a6.014 6.014 0 0 0 0-1.018l1.073-.09a7.119 7.119 0 0 1 0 1.199Zm-.155-2.186-1.05.243a5.876 5.876 0 0 0-.312-.963l.992-.42c.154.365.278.746.37 1.14Zm-.825-2.03-.921.558a5.956 5.956 0 0 0-.597-.82l.813-.706c.262.301.498.625.705.969Zm-1.41-1.674-.707.813a5.947 5.947 0 0 0-.82-.597l.557-.921c.344.207.668.443.97.705Zm-1.86-1.16-.42.992a5.87 5.87 0 0 0-.962-.312l.243-1.05c.394.092.774.216 1.14.37ZM8.6 1.025l-.091 1.073a6.019 6.019 0 0 0-1.018 0l-.09-1.073a7.094 7.094 0 0 1 1.199 0Zm-2.186.155.243 1.05a5.87 5.87 0 0 0-.963.312l-.42-.992a6.947 6.947 0 0 1 1.14-.37Zm-2.03.825.558.921c-.29.176-.565.376-.82.597l-.706-.813c.301-.262.625-.498.969-.705ZM2.71 3.415l.813.707c-.221.255-.421.53-.597.82l-.921-.557c.207-.344.443-.668.705-.97Zm-1.16 1.86.992.42a5.87 5.87 0 0 0-.312.962l-1.05-.243c.092-.394.216-.775.37-1.14ZM1.025 7.4a7.094 7.094 0 0 0 0 1.2l1.073-.091a6.019 6.019 0 0 1 0-1.018l-1.073-.09Zm.155 2.186 1.05-.243c.077.333.182.654.312.963l-.992.42a6.947 6.947 0 0 1-.37-1.14Zm.825 2.03.921-.558c.176.29.376.565.597.82l-.813.706a7.025 7.025 0 0 1-.705-.969Zm1.41 1.674.707-.813c.255.221.53.421.82.597l-.557.921a7.03 7.03 0 0 1-.97-.705Zm1.86 1.16.42-.992c.308.13.63.235.962.312l-.243 1.05a6.952 6.952 0 0 1-1.14-.37Zm2.125.525.091-1.073a6.014 6.014 0 0 0 1.018 0l.09 1.073a7.119 7.119 0 0 1-1.199 0Zm2.186-.155-.243-1.05c.333-.077.654-.182.963-.312l.42.992a6.952 6.952 0 0 1-1.14.37Zm2.03-.825-.558-.921c.29-.176.565-.376.82-.597l.706.813a7.033 7.033 0 0 1-.969.705Zm1.674-1.41-.813-.707c.221-.255.421-.53.597-.82l.921.557a7.033 7.033 0 0 1-.705.97Zm1.16-1.86-.992-.42c.13-.308.235-.63.312-.962l1.05.243a6.952 6.952 0 0 1-.37 1.14Z"/><path d="M5.412 11.863v-.16c0-.267.03-.53.09-.79.066-.267.19-.537.37-.81.173-.273.413-.553.72-.84a8.46 8.46 0 0 1 1.19-.9c.28-.18.52-.343.72-.49.2-.147.363-.293.49-.44.12-.14.21-.287.27-.44.06-.153.09-.327.09-.52 0-.38-.114-.673-.34-.88-.22-.213-.53-.32-.93-.32-.36 0-.69.1-.99.3-.3.193-.564.477-.79.85l-.8-.53c.286-.48.643-.86 1.07-1.14.433-.287.953-.43 1.56-.43.353 0 .67.05.95.15.28.1.516.24.71.42.193.187.34.407.44.66.106.253.16.533.16.84 0 .233-.027.453-.08.66a2 2 0 0 1-.28.61c-.14.2-.327.4-.56.6-.234.2-.527.413-.88.64-.627.393-1.097.757-1.41 1.09-.314.327-.497.637-.55.93h3.8v.94h-5.02Z"/></g></svg>