<svg width="16" height="16" fill="none" xmlns="http://www.w3.org/2000/svg"><g fill="#2E2E2E"><path fill-rule="evenodd" clip-rule="evenodd" d="m14.975 8.6-1.073-.091a6.014 6.014 0 0 0 0-1.018l1.073-.09a7.119 7.119 0 0 1 0 1.199Zm-.155-2.186-1.05.243a5.876 5.876 0 0 0-.312-.963l.992-.42c.154.365.278.746.37 1.14Zm-.825-2.03-.921.558a5.956 5.956 0 0 0-.597-.82l.813-.706c.262.301.498.625.705.969Zm-1.41-1.674-.707.813a5.947 5.947 0 0 0-.82-.597l.557-.921c.344.207.668.443.97.705Zm-1.86-1.16-.42.992a5.87 5.87 0 0 0-.962-.312l.243-1.05c.394.092.774.216 1.14.37ZM8.6 1.025l-.091 1.073a6.019 6.019 0 0 0-1.018 0l-.09-1.073a7.094 7.094 0 0 1 1.199 0Zm-2.186.155.243 1.05a5.87 5.87 0 0 0-.963.312l-.42-.992a6.947 6.947 0 0 1 1.14-.37Zm-2.03.825.558.921c-.29.176-.565.376-.82.597l-.706-.813c.301-.262.625-.498.969-.705ZM2.71 3.415l.813.707c-.221.255-.421.53-.597.82l-.921-.557c.207-.344.443-.668.705-.97Zm-1.16 1.86.992.42a5.87 5.87 0 0 0-.312.962l-1.05-.243c.092-.394.216-.775.37-1.14ZM1.025 7.4a7.094 7.094 0 0 0 0 1.2l1.073-.091a6.019 6.019 0 0 1 0-1.018l-1.073-.09Zm.155 2.186 1.05-.243c.077.333.182.654.312.963l-.992.42a6.947 6.947 0 0 1-.37-1.14Zm.825 2.03.921-.558c.176.29.376.565.597.82l-.813.706a7.025 7.025 0 0 1-.705-.969Zm1.41 1.674.707-.813c.255.221.53.421.82.597l-.557.921a7.03 7.03 0 0 1-.97-.705Zm1.86 1.16.42-.992c.308.13.63.235.962.312l-.243 1.05a6.952 6.952 0 0 1-1.14-.37Zm2.125.525.091-1.073a6.014 6.014 0 0 0 1.018 0l.09 1.073a7.119 7.119 0 0 1-1.199 0Zm2.186-.155-.243-1.05c.333-.077.654-.182.963-.312l.42.992a6.952 6.952 0 0 1-1.14.37Zm2.03-.825-.558-.921c.29-.176.565-.376.82-.597l.706.813a7.033 7.033 0 0 1-.969.705Zm1.674-1.41-.813-.707c.221-.255.421-.53.597-.82l.921.557a7.033 7.033 0 0 1-.705.97Zm1.16-1.86-.992-.42c.13-.308.235-.63.312-.962l1.05.243a6.952 6.952 0 0 1-.37 1.14Z"/><path d="M8.06 11.857c-.727 0-1.337-.173-1.83-.52a2.865 2.865 0 0 1-1.06-1.39l.86-.42c.207.46.48.807.82 1.04.347.227.763.34 1.25.34s.877-.09 1.17-.27c.3-.18.45-.453.45-.82 0-.166-.03-.316-.09-.45a1.062 1.062 0 0 0-.29-.37 2.452 2.452 0 0 0-.55-.3c-.227-.1-.507-.2-.84-.3a18.24 18.24 0 0 1-1.02-.34 3.28 3.28 0 0 1-.79-.43 1.754 1.754 0 0 1-.53-.58c-.12-.226-.18-.51-.18-.85 0-.3.06-.573.18-.82.12-.246.29-.46.51-.64.213-.173.47-.31.77-.41.3-.1.633-.15 1-.15.36 0 .68.044.96.13.287.08.54.194.76.34.22.147.41.32.57.52.16.194.293.404.4.63l-.81.51c-.213-.406-.477-.7-.79-.88a2.109 2.109 0 0 0-1.1-.28c-.44 0-.783.087-1.03.26a.814.814 0 0 0-.37.7c0 .187.033.347.1.48.067.127.177.24.33.34.147.107.337.207.57.3.233.087.517.18.85.28.36.107.69.224.99.35.3.12.557.264.77.43.213.174.38.377.5.61.12.234.18.517.18.85 0 .3-.063.58-.19.84s-.307.484-.54.67c-.24.187-.527.334-.86.44-.333.107-.707.16-1.12.16Z"/></g></svg>