<svg width="16" height="16" fill="none" xmlns="http://www.w3.org/2000/svg"><g fill="#2E2E2E"><path fill-rule="evenodd" clip-rule="evenodd" d="m14.975 8.6-1.073-.091a6.014 6.014 0 0 0 0-1.018l1.073-.09a7.119 7.119 0 0 1 0 1.199Zm-.155-2.186-1.05.243a5.876 5.876 0 0 0-.312-.963l.992-.42c.154.365.278.746.37 1.14Zm-.825-2.03-.921.558a5.956 5.956 0 0 0-.597-.82l.813-.706c.262.301.498.625.705.969Zm-1.41-1.674-.707.813a5.947 5.947 0 0 0-.82-.597l.557-.921c.344.207.668.443.97.705Zm-1.86-1.16-.42.992a5.87 5.87 0 0 0-.962-.312l.243-1.05c.394.092.774.216 1.14.37ZM8.6 1.025l-.091 1.073a6.019 6.019 0 0 0-1.018 0l-.09-1.073a7.094 7.094 0 0 1 1.199 0Zm-2.186.155.243 1.05a5.87 5.87 0 0 0-.963.312l-.42-.992a6.947 6.947 0 0 1 1.14-.37Zm-2.03.825.558.921c-.29.176-.565.376-.82.597l-.706-.813c.301-.262.625-.498.969-.705ZM2.71 3.415l.813.707c-.221.255-.421.53-.597.82l-.921-.557c.207-.344.443-.668.705-.97Zm-1.16 1.86.992.42a5.87 5.87 0 0 0-.312.962l-1.05-.243c.092-.394.216-.775.37-1.14ZM1.025 7.4a7.094 7.094 0 0 0 0 1.2l1.073-.091a6.019 6.019 0 0 1 0-1.018l-1.073-.09Zm.155 2.186 1.05-.243c.077.333.182.654.312.963l-.992.42a6.947 6.947 0 0 1-.37-1.14Zm.825 2.03.921-.558c.176.29.376.565.597.82l-.813.706a7.025 7.025 0 0 1-.705-.969Zm1.41 1.674.707-.813c.255.221.53.421.82.597l-.557.921a7.03 7.03 0 0 1-.97-.705Zm1.86 1.16.42-.992c.308.13.63.235.962.312l-.243 1.05a6.952 6.952 0 0 1-1.14-.37Zm2.125.525.091-1.073a6.014 6.014 0 0 0 1.018 0l.09 1.073a7.119 7.119 0 0 1-1.199 0Zm2.186-.155-.243-1.05c.333-.077.654-.182.963-.312l.42.992a6.952 6.952 0 0 1-1.14.37Zm2.03-.825-.558-.921c.29-.176.565-.376.82-.597l.706.813a7.033 7.033 0 0 1-.969.705Zm1.674-1.41-.813-.707c.221-.255.421-.53.597-.82l.921.557a7.033 7.033 0 0 1-.705.97Zm1.16-1.86-.992-.42c.13-.308.235-.63.312-.962l1.05.243a6.952 6.952 0 0 1-.37 1.14Z"/><path d="M5.394 11.865v-7.4h2.72c.386 0 .736.036 1.05.11.32.066.593.173.82.32.22.153.39.346.51.58.12.233.18.51.18.83 0 .253-.037.48-.11.68a1.429 1.429 0 0 1-.71.84c-.16.086-.334.15-.52.19v.02c.226.04.436.106.63.2.193.086.36.203.5.35.14.146.246.323.32.53.08.206.12.446.12.72 0 .326-.064.616-.19.87-.12.246-.29.456-.51.63a2.48 2.48 0 0 1-.82.4c-.32.086-.677.13-1.07.13h-2.92Zm1.05-.93h1.77c.573 0 .99-.097 1.25-.29.26-.2.39-.5.39-.9 0-.434-.157-.744-.47-.93-.314-.187-.754-.28-1.32-.28h-1.62v2.4Zm0-3.31h1.57c.526 0 .93-.09 1.21-.27.28-.18.42-.467.42-.86 0-.394-.127-.674-.38-.84-.254-.167-.664-.25-1.23-.25h-1.59v2.22Z"/></g></svg>