<svg width="16" height="16" fill="none" xmlns="http://www.w3.org/2000/svg"><g fill="#2E2E2E"><path fill-rule="evenodd" clip-rule="evenodd" d="m14.975 8.6-1.073-.091a6.014 6.014 0 0 0 0-1.018l1.073-.09a7.119 7.119 0 0 1 0 1.199Zm-.155-2.186-1.05.243a5.876 5.876 0 0 0-.312-.963l.992-.42c.154.365.278.746.37 1.14Zm-.825-2.03-.921.558a5.956 5.956 0 0 0-.597-.82l.813-.706c.262.301.498.625.705.969Zm-1.41-1.674-.707.813a5.947 5.947 0 0 0-.82-.597l.557-.921c.344.207.668.443.97.705Zm-1.86-1.16-.42.992a5.87 5.87 0 0 0-.962-.312l.243-1.05c.394.092.774.216 1.14.37ZM8.6 1.025l-.091 1.073a6.019 6.019 0 0 0-1.018 0l-.09-1.073a7.094 7.094 0 0 1 1.199 0Zm-2.186.155.243 1.05a5.87 5.87 0 0 0-.963.312l-.42-.992a6.947 6.947 0 0 1 1.14-.37Zm-2.03.825.558.921c-.29.176-.565.376-.82.597l-.706-.813c.301-.262.625-.498.969-.705ZM2.71 3.415l.813.707c-.221.255-.421.53-.597.82l-.921-.557c.207-.344.443-.668.705-.97Zm-1.16 1.86.992.42a5.87 5.87 0 0 0-.312.962l-1.05-.243c.092-.394.216-.775.37-1.14ZM1.025 7.4a7.094 7.094 0 0 0 0 1.2l1.073-.091a6.019 6.019 0 0 1 0-1.018l-1.073-.09Zm.155 2.186 1.05-.243c.077.333.182.654.312.963l-.992.42a6.947 6.947 0 0 1-.37-1.14Zm.825 2.03.921-.558c.176.29.376.565.597.82l-.813.706a7.025 7.025 0 0 1-.705-.969Zm1.41 1.674.707-.813c.255.221.53.421.82.597l-.557.921a7.03 7.03 0 0 1-.97-.705Zm1.86 1.16.42-.992c.308.13.63.235.962.312l-.243 1.05a6.952 6.952 0 0 1-1.14-.37Zm2.125.525.091-1.073a6.014 6.014 0 0 0 1.018 0l.09 1.073a7.119 7.119 0 0 1-1.199 0Zm2.186-.155-.243-1.05c.333-.077.654-.182.963-.312l.42.992a6.952 6.952 0 0 1-1.14.37Zm2.03-.825-.558-.921c.29-.176.565-.376.82-.597l.706.813a7.033 7.033 0 0 1-.969.705Zm1.674-1.41-.813-.707c.221-.255.421-.53.597-.82l.921.557a7.033 7.033 0 0 1-.705.97Zm1.16-1.86-.992-.42c.13-.308.235-.63.312-.962l1.05.243a6.952 6.952 0 0 1-.37 1.14Z"/><path d="M8.006 11.997c-.46 0-.89-.086-1.29-.26a2.971 2.971 0 0 1-1.04-.75 3.522 3.522 0 0 1-.69-1.2 4.952 4.952 0 0 1-.25-1.63c0-.606.083-1.146.25-1.62a3.62 3.62 0 0 1 .69-1.22c.293-.326.64-.573 1.04-.74.4-.173.83-.26 1.29-.26.46 0 .89.087 1.29.26.4.167.747.414 1.04.74.287.334.513.74.68 1.22.166.474.25 1.014.25 1.62 0 .607-.084 1.15-.25 1.63a3.616 3.616 0 0 1-.68 1.2 2.97 2.97 0 0 1-1.04.75c-.4.174-.83.26-1.29.26Zm0-.96c.32 0 .613-.063.88-.19a1.99 1.99 0 0 0 .7-.57c.193-.24.343-.536.45-.89.107-.36.16-.77.16-1.23 0-.46-.053-.866-.16-1.22a2.703 2.703 0 0 0-.45-.91 1.933 1.933 0 0 0-.7-.55 2.025 2.025 0 0 0-.88-.19c-.327 0-.627.064-.9.19-.267.127-.497.31-.69.55-.193.247-.343.55-.45.91-.107.354-.16.76-.16 1.22 0 .46.053.87.16 1.23a2.6 2.6 0 0 0 .45.89c.193.247.423.437.69.57.273.127.573.19.9.19Z"/></g></svg>