<svg width="16" height="16" fill="none" xmlns="http://www.w3.org/2000/svg"><g fill="#2E2E2E"><path fill-rule="evenodd" clip-rule="evenodd" d="m14.975 8.6-1.073-.091a6.014 6.014 0 0 0 0-1.018l1.073-.09a7.119 7.119 0 0 1 0 1.199Zm-.155-2.186-1.05.243a5.876 5.876 0 0 0-.312-.963l.992-.42c.154.365.278.746.37 1.14Zm-.825-2.03-.921.558a5.956 5.956 0 0 0-.597-.82l.813-.706c.262.301.498.625.705.969Zm-1.41-1.674-.707.813a5.947 5.947 0 0 0-.82-.597l.557-.921c.344.207.668.443.97.705Zm-1.86-1.16-.42.992a5.87 5.87 0 0 0-.962-.312l.243-1.05c.394.092.774.216 1.14.37ZM8.6 1.025l-.091 1.073a6.019 6.019 0 0 0-1.018 0l-.09-1.073a7.094 7.094 0 0 1 1.199 0Zm-2.186.155.243 1.05a5.87 5.87 0 0 0-.963.312l-.42-.992a6.947 6.947 0 0 1 1.14-.37Zm-2.03.825.558.921c-.29.176-.565.376-.82.597l-.706-.813c.301-.262.625-.498.969-.705ZM2.71 3.415l.813.707c-.221.255-.421.53-.597.82l-.921-.557c.207-.344.443-.668.705-.97Zm-1.16 1.86.992.42a5.87 5.87 0 0 0-.312.962l-1.05-.243c.092-.394.216-.775.37-1.14ZM1.025 7.4a7.094 7.094 0 0 0 0 1.2l1.073-.091a6.019 6.019 0 0 1 0-1.018l-1.073-.09Zm.155 2.186 1.05-.243c.077.333.182.654.312.963l-.992.42a6.947 6.947 0 0 1-.37-1.14Zm.825 2.03.921-.558c.176.29.376.565.597.82l-.813.706a7.025 7.025 0 0 1-.705-.969Zm1.41 1.674.707-.813c.255.221.53.421.82.597l-.557.921a7.03 7.03 0 0 1-.97-.705Zm1.86 1.16.42-.992c.308.13.63.235.962.312l-.243 1.05a6.952 6.952 0 0 1-1.14-.37Zm2.125.525.091-1.073a6.014 6.014 0 0 0 1.018 0l.09 1.073a7.119 7.119 0 0 1-1.199 0Zm2.186-.155-.243-1.05c.333-.077.654-.182.963-.312l.42.992a6.952 6.952 0 0 1-1.14.37Zm2.03-.825-.558-.921c.29-.176.565-.376.82-.597l.706.813a7.033 7.033 0 0 1-.969.705Zm1.674-1.41-.813-.707c.221-.255.421-.53.597-.82l.921.557a7.033 7.033 0 0 1-.705.97Zm1.16-1.86-.992-.42c.13-.308.235-.63.312-.962l1.05.243a6.952 6.952 0 0 1-.37 1.14Z"/><path d="M8.155 11.87c-.473 0-.906-.084-1.3-.25a2.824 2.824 0 0 1-1-.75 3.57 3.57 0 0 1-.66-1.21A5.52 5.52 0 0 1 4.965 8c0-.6.08-1.134.24-1.6.16-.474.384-.874.67-1.2.28-.327.614-.577 1-.75.394-.174.82-.26 1.28-.26.414 0 .777.056 1.09.17a2.355 2.355 0 0 1 1.37 1.18c.147.28.264.59.35.93l-1.02.29a3.93 3.93 0 0 0-.26-.69c-.1-.2-.22-.367-.36-.5a1.454 1.454 0 0 0-.51-.3c-.186-.067-.41-.1-.67-.1a1.9 1.9 0 0 0-.88.2c-.26.126-.48.31-.66.55-.186.246-.33.543-.43.89-.093.346-.14.74-.14 1.18 0 .933.19 1.653.57 2.16.38.5.9.75 1.56.75.507 0 .91-.137 1.21-.41.307-.274.537-.7.69-1.28l1.01.23c-.093.366-.22.7-.38 1a2.8 2.8 0 0 1-.6.76c-.24.213-.523.38-.85.5-.32.113-.683.17-1.09.17Z"/></g></svg>