<svg width="16" height="16" fill="none" xmlns="http://www.w3.org/2000/svg"><g fill="#2E2E2E"><path fill-rule="evenodd" clip-rule="evenodd" d="m14.975 8.6-1.073-.091a6.014 6.014 0 0 0 0-1.018l1.073-.09a7.119 7.119 0 0 1 0 1.199Zm-.155-2.186-1.05.243a5.876 5.876 0 0 0-.312-.963l.992-.42c.154.365.278.746.37 1.14Zm-.825-2.03-.921.558a5.956 5.956 0 0 0-.597-.82l.813-.706c.262.301.498.625.705.969Zm-1.41-1.674-.707.813a5.947 5.947 0 0 0-.82-.597l.557-.921c.344.207.668.443.97.705Zm-1.86-1.16-.42.992a5.87 5.87 0 0 0-.962-.312l.243-1.05c.394.092.774.216 1.14.37ZM8.6 1.025l-.091 1.073a6.019 6.019 0 0 0-1.018 0l-.09-1.073a7.094 7.094 0 0 1 1.199 0Zm-2.186.155.243 1.05a5.87 5.87 0 0 0-.963.312l-.42-.992a6.947 6.947 0 0 1 1.14-.37Zm-2.03.825.558.921c-.29.176-.565.376-.82.597l-.706-.813c.301-.262.625-.498.969-.705ZM2.71 3.415l.813.707c-.221.255-.421.53-.597.82l-.921-.557c.207-.344.443-.668.705-.97Zm-1.16 1.86.992.42a5.87 5.87 0 0 0-.312.962l-1.05-.243c.092-.394.216-.775.37-1.14ZM1.025 7.4a7.094 7.094 0 0 0 0 1.2l1.073-.091a6.019 6.019 0 0 1 0-1.018l-1.073-.09Zm.155 2.186 1.05-.243c.077.333.182.654.312.963l-.992.42a6.947 6.947 0 0 1-.37-1.14Zm.825 2.03.921-.558c.176.29.376.565.597.82l-.813.706a7.025 7.025 0 0 1-.705-.969Zm1.41 1.674.707-.813c.255.221.53.421.82.597l-.557.921a7.03 7.03 0 0 1-.97-.705Zm1.86 1.16.42-.992c.308.13.63.235.962.312l-.243 1.05a6.952 6.952 0 0 1-1.14-.37Zm2.125.525.091-1.073a6.014 6.014 0 0 0 1.018 0l.09 1.073a7.119 7.119 0 0 1-1.199 0Zm2.186-.155-.243-1.05c.333-.077.654-.182.963-.312l.42.992a6.952 6.952 0 0 1-1.14.37Zm2.03-.825-.558-.921c.29-.176.565-.376.82-.597l.706.813a7.033 7.033 0 0 1-.969.705Zm1.674-1.41-.813-.707c.221-.255.421-.53.597-.82l.921.557a7.033 7.033 0 0 1-.705.97Zm1.16-1.86-.992-.42c.13-.308.235-.63.312-.962l1.05.243a6.952 6.952 0 0 1-.37 1.14Z"/><path d="M9.611 12.646c-.367 0-.687-.044-.96-.133a1.846 1.846 0 0 1-.664-.351 1.57 1.57 0 0 1-.418-.56 1.96 1.96 0 0 1-.143-.704 2.723 2.723 0 0 1-1.007-.37c-.31-.19-.58-.44-.807-.75a3.475 3.475 0 0 1-.532-1.074 4.77 4.77 0 0 1-.19-1.387c0-.577.082-1.09.247-1.54.164-.455.389-.842.674-1.158a2.83 2.83 0 0 1 .988-.703c.38-.165.782-.247 1.207-.247.424 0 .823.082 1.197.247.373.158.7.392.978.703.279.316.5.703.665 1.159.165.45.247.962.247 1.539 0 .525-.066 1-.2 1.425a3.489 3.489 0 0 1-.55 1.083 2.847 2.847 0 0 1-1.891 1.092c.032.184.086.333.162.447.082.114.19.202.323.266.126.063.275.104.446.123.171.02.367.029.589.029h.485v.864H9.61Zm-1.605-2.584c.304 0 .582-.06.836-.18.26-.127.48-.308.665-.542.177-.234.316-.52.418-.855.1-.342.151-.731.151-1.168 0-.437-.05-.824-.151-1.16a2.681 2.681 0 0 0-.418-.864 1.836 1.836 0 0 0-.665-.522 1.923 1.923 0 0 0-.836-.18c-.31 0-.596.06-.855.18a1.86 1.86 0 0 0-.656.522c-.19.234-.336.523-.437.865a4.017 4.017 0 0 0-.152 1.159c0 .437.05.826.152 1.168.101.336.247.62.437.855.184.234.402.415.656.542.26.12.544.18.855.18Z"/></g></svg>