<svg width="16" height="16" fill="none" xmlns="http://www.w3.org/2000/svg"><g fill-rule="evenodd" clip-rule="evenodd" fill="#2E2E2E"><path d="M14.5 15c.276 0 .5-.225.491-.501-.258-7.334-6.156-13.233-13.49-13.49a.487.487 0 0 0-.501.49v2.334c0 .276.224.499.5.512 5.493.253 9.902 4.662 10.155 10.155.013.275.236.5.512.5H14.5ZM6.958 3.443A12.92 12.92 0 0 0 2 2.038v1.337c1.538.131 2.992.56 4.301 1.23l.657-1.162Zm.87.492-.656 1.162a11.727 11.727 0 0 1 3.73 3.731l1.163-.656a13.068 13.068 0 0 0-4.237-4.237ZM12.624 14a11.593 11.593 0 0 0-1.229-4.302l1.162-.656A12.919 12.919 0 0 1 13.962 14h-1.338Z"/><path d="M8.167 15c.552 0 1.006-.45.94-.998a8.17 8.17 0 0 0-7.109-7.109C1.45 6.827 1 7.281 1 7.833v1.833c0 .277.224.498.5.526a4.835 4.835 0 0 1 4.308 4.309c.028.274.249.499.525.499h1.834ZM5.702 9.59A7.138 7.138 0 0 0 2 7.903v1.35a5.81 5.81 0 0 1 2.756 1.285l.946-.946Zm.707.708A7.139 7.139 0 0 1 8.097 14h-1.35a5.81 5.81 0 0 0-1.284-2.756l.946-.946Z"/></g></svg>