<svg width="16" height="16" fill="none" xmlns="http://www.w3.org/2000/svg"><g fill-rule="evenodd" clip-rule="evenodd" fill="#2E2E2E"><path d="M14 2h-4v4h4V2Zm-4-1a1 1 0 0 0-1 1v4a1 1 0 0 0 1 1h4a1 1 0 0 0 1-1V2a1 1 0 0 0-1-1h-4ZM14.412 11.426 12 9.014l-2.412 2.412L12 13.838l2.412-2.412Zm-1.705-3.119a1 1 0 0 0-1.414 0L8.88 10.72a1 1 0 0 0 0 1.414l2.412 2.412a1 1 0 0 0 1.414 0l2.412-2.412a1 1 0 0 0 0-1.414l-2.412-2.412ZM4 6a2 2 0 1 0 0-4 2 2 0 0 0 0 4Zm0 1a3 3 0 1 0 0-6 3 3 0 0 0 0 6ZM4.062 10.18 1.856 14h4.412l-2.206-3.82Zm.433-1.25a.5.5 0 0 0-.866 0L.557 14.25A.5.5 0 0 0 .99 15h6.144a.5.5 0 0 0 .433-.75L4.495 8.93Z"/></g></svg>