<svg width="16" height="16" fill="none" xmlns="http://www.w3.org/2000/svg"><path fill-rule="evenodd" clip-rule="evenodd" d="M4.012 9.007c.463 0 .88-.098 1.252-.295.372-.196.687-.474.945-.835.258-.36.454-.786.589-1.278A6.11 6.11 0 0 0 7 4.98a6.06 6.06 0 0 0-.207-1.634A3.839 3.839 0 0 0 6.2 2.085a2.668 2.668 0 0 0-.936-.804A2.67 2.67 0 0 0 4.03 1c-.457 0-.87.094-1.239.281-.37.188-.686.46-.95.818a3.94 3.94 0 0 0-.606 1.287 6.154 6.154 0 0 0-.21 1.666c0 .586.065 1.12.197 1.604.132.483.325.9.58 1.252.255.352.569.623.94.813.373.19.796.286 1.27.286ZM4.55 15 13 1h-1.151l-8.45 14h1.152Zm-.522-6.995c-.299 0-.564-.072-.795-.215a1.802 1.802 0 0 1-.589-.616 3.156 3.156 0 0 1-.365-.958 5.744 5.744 0 0 1-.123-1.235c0-.421.041-.813.123-1.173.082-.36.202-.675.36-.945.159-.27.354-.479.585-.628.232-.15.494-.224.787-.224.293 0 .555.07.786.21.232.141.427.345.585.612.158.266.278.584.36.953.082.37.123.78.123 1.23 0 .422-.04.815-.118 1.178-.08.364-.198.681-.356.954a1.825 1.825 0 0 1-.585.633c-.231.15-.49.224-.778.224ZM11.99 15c.462 0 .88-.098 1.252-.294.372-.197.687-.475.944-.835.258-.36.455-.786.59-1.275.134-.489.202-1.024.202-1.604 0-.603-.068-1.151-.203-1.643a3.726 3.726 0 0 0-.593-1.262 2.664 2.664 0 0 0-.94-.8 2.705 2.705 0 0 0-1.235-.276c-.457 0-.87.094-1.24.281-.368.188-.685.457-.949.809a3.837 3.837 0 0 0-.606 1.278A6.154 6.154 0 0 0 9 11.045c0 .586.064 1.12.193 1.604.13.483.321.9.576 1.252.255.352.57.623.945.813.375.19.8.286 1.274.286Zm0-.984c-.3 0-.565-.072-.796-.216a1.764 1.764 0 0 1-.585-.615 3.152 3.152 0 0 1-.356-.958 5.95 5.95 0 0 1-.118-1.235c0-.428.04-.823.118-1.186.08-.364.197-.68.352-.95.155-.269.35-.479.585-.628.234-.15.5-.224.8-.224.292 0 .553.07.781.21.229.142.422.345.58.612.159.266.277.584.357.953.079.37.118.78.118 1.23 0 .429-.04.824-.118 1.187a3.36 3.36 0 0 1-.352.954 1.83 1.83 0 0 1-.58.637 1.399 1.399 0 0 1-.787.229Z" fill="#2E2E2E"/></svg>