<svg width="16" height="16" fill="none" xmlns="http://www.w3.org/2000/svg"><path fill-rule="evenodd" clip-rule="evenodd" d="M8.65 12.747v-2.355c.001-.45.07-.823.205-1.117.203-.44.269-.473.491-.677.223-.204.539-.427.947-.668.39-.222.725-.44 1.006-.654.282-.213.53-.454.742-.724a3.1 3.1 0 0 0 .502-.932c.12-.352.18-.754.18-1.206 0-.5-.096-.96-.287-1.378a3.108 3.108 0 0 0-.83-1.085 3.807 3.807 0 0 0-1.3-.705A5.361 5.361 0 0 0 8.642 1c-.513 0-.985.059-1.414.176a4.861 4.861 0 0 0-2.162 1.239 8.359 8.359 0 0 0-.849.979l.946.723c.21-.297.43-.561.659-.793a3.97 3.97 0 0 1 .752-.598c.272-.167.575-.297.909-.39.334-.093.695-.14 1.085-.14.44 0 .832.053 1.178.158.347.106.642.259.886.46.245.2.43.443.557.728.127.284.19.603.19.956 0 .352-.042.657-.125.913a2.027 2.027 0 0 1-.385.692 3.622 3.622 0 0 1-.645.584c-.257.186-.601.411-1.034.677a4.587 4.587 0 0 0-.798.58 2.808 2.808 0 0 0-.524.645c-.133.229-.23.478-.293.747-.04.18-.072.484-.092.913v2.498H8.65Zm0 2.22v-1.195H7.483v1.196H8.65Z" fill="#2E2E2E"/></svg>